<svg width="1002" height="87" viewBox="0 0 1002 87" fill="none" xmlns="http://www.w3.org/2000/svg">
<path d="M32.12 36.4V48.4H14V73H36.8V85H0.8V0.999994H36.8V13H14V36.4H32.12ZM75.2197 41.8L89.9797 85H76.0597L65.2597 51.76L54.3397 85H41.9797L56.7397 41.8L42.9397 0.999994H56.6197L66.5797 31.96L76.7797 0.999994H89.0197L75.2197 41.8ZM115.982 0.999994C122.542 0.999994 127.462 2.76 130.742 6.28C134.022 9.8 135.662 14.96 135.662 21.76V32.68C135.662 39.48 134.022 44.64 130.742 48.16C127.462 51.68 122.542 53.44 115.982 53.44H109.742V85H96.5422V0.999994H115.982ZM109.742 41.44H115.982C118.142 41.44 119.742 40.84 120.782 39.64C121.902 38.44 122.462 36.4 122.462 33.52V20.92C122.462 18.04 121.902 16 120.782 14.8C119.742 13.6 118.142 13 115.982 13H109.742V41.44ZM154.977 0.999994V73H176.697V85H141.777V0.999994H154.977ZM181.361 21.16C181.361 14.44 183.081 9.23999 186.521 5.55999C189.961 1.88 194.921 0.0399995 201.401 0.0399995C207.881 0.0399995 212.841 1.88 216.281 5.55999C219.721 9.23999 221.441 14.44 221.441 21.16V64.84C221.441 71.56 219.721 76.76 216.281 80.44C212.841 84.12 207.881 85.96 201.401 85.96C194.921 85.96 189.961 84.12 186.521 80.44C183.081 76.76 181.361 71.56 181.361 64.84V21.16ZM194.561 65.68C194.561 71.2 196.841 73.96 201.401 73.96C205.961 73.96 208.241 71.2 208.241 65.68V20.32C208.241 14.8 205.961 12.04 201.401 12.04C196.841 12.04 194.561 14.8 194.561 20.32V65.68ZM257.619 85C257.139 83.64 256.819 82.36 256.659 81.16C256.499 79.96 256.419 77.8 256.419 74.68V61.48C256.419 57.64 255.739 54.92 254.379 53.32C253.019 51.64 250.819 50.8 247.779 50.8H243.219V85H230.019V0.999994H249.939C256.739 0.999994 261.699 2.6 264.819 5.8C267.939 8.91999 269.499 13.76 269.499 20.32V26.92C269.499 35.56 266.619 41.24 260.859 43.96C263.979 45.24 266.219 47.4 267.579 50.44C268.939 53.4 269.619 57.2 269.619 61.84V74.8C269.619 77.2 269.699 79.16 269.859 80.68C270.019 82.12 270.419 83.56 271.059 85H257.619ZM243.219 38.8H248.379C251.019 38.8 252.979 38.12 254.259 36.76C255.619 35.4 256.299 33.12 256.299 29.92V21.64C256.299 18.6 255.739 16.4 254.619 15.04C253.579 13.68 251.899 13 249.579 13H243.219V38.8ZM309.62 36.4V48.4H291.5V73H314.3V85H278.3V0.999994H314.3V13H291.5V36.4H309.62ZM336.793 0.999994H350.593L360.673 39.28L370.753 0.999994H383.353L366.673 57.16V85H353.473V57.16L336.793 0.999994ZM385.853 21.16C385.853 14.44 387.573 9.23999 391.013 5.55999C394.453 1.88 399.413 0.0399995 405.893 0.0399995C412.373 0.0399995 417.333 1.88 420.773 5.55999C424.213 9.23999 425.933 14.44 425.933 21.16V64.84C425.933 71.56 424.213 76.76 420.773 80.44C417.333 84.12 412.373 85.96 405.893 85.96C399.413 85.96 394.453 84.12 391.013 80.44C387.573 76.76 385.853 71.56 385.853 64.84V21.16ZM399.053 65.68C399.053 71.2 401.333 73.96 405.893 73.96C410.453 73.96 412.733 71.2 412.733 65.68V20.32C412.733 14.8 410.453 12.04 405.893 12.04C401.333 12.04 399.053 14.8 399.053 20.32V65.68ZM447.111 65.8C447.111 71.24 449.391 73.96 453.951 73.96C458.511 73.96 460.791 71.24 460.791 65.8V0.999994H473.271V64.96C473.271 71.76 471.591 77 468.231 80.68C464.871 84.28 459.991 86.08 453.591 86.08C447.191 86.08 442.311 84.28 438.951 80.68C435.591 77 433.911 71.76 433.911 64.96V0.999994H447.111V65.8ZM509.923 85C509.443 83.64 509.123 82.36 508.963 81.16C508.803 79.96 508.723 77.8 508.723 74.68V61.48C508.723 57.64 508.043 54.92 506.683 53.32C505.323 51.64 503.123 50.8 500.083 50.8H495.523V85H482.323V0.999994H502.243C509.043 0.999994 514.003 2.6 517.123 5.8C520.243 8.91999 521.803 13.76 521.803 20.32V26.92C521.803 35.56 518.923 41.24 513.163 43.96C516.283 45.24 518.523 47.4 519.883 50.44C521.243 53.4 521.923 57.2 521.923 61.84V74.8C521.923 77.2 522.003 79.16 522.163 80.68C522.323 82.12 522.723 83.56 523.363 85H509.923ZM495.523 38.8H500.683C503.323 38.8 505.283 38.12 506.563 36.76C507.923 35.4 508.603 33.12 508.603 29.92V21.64C508.603 18.6 508.043 16.4 506.923 15.04C505.883 13.68 504.203 13 501.883 13H495.523V38.8ZM548.158 21.16C548.158 14.44 549.878 9.23999 553.318 5.55999C556.758 1.88 561.718 0.0399995 568.198 0.0399995C574.678 0.0399995 579.638 1.88 583.078 5.55999C586.518 9.23999 588.238 14.44 588.238 21.16V64.84C588.238 71.56 586.518 76.76 583.078 80.44C579.638 84.12 574.678 85.96 568.198 85.96C561.718 85.96 556.758 84.12 553.318 80.44C549.878 76.76 548.158 71.56 548.158 64.84V21.16ZM561.358 65.68C561.358 71.2 563.638 73.96 568.198 73.96C572.758 73.96 575.038 71.2 575.038 65.68V20.32C575.038 14.8 572.758 12.04 568.198 12.04C563.638 12.04 561.358 14.8 561.358 20.32V65.68ZM621.296 85H603.176L593.816 0.999994H606.656L613.736 67.24L620.096 0.999994H632.816L639.416 67.72L646.256 0.999994H657.776L648.416 85H630.896L626.096 40.24L621.296 85ZM676.193 85H664.313V0.999994H680.873L694.433 51.28V0.999994H706.193V85H692.633L676.193 24.16V85ZM753.717 0.999994C760.277 0.999994 765.197 2.76 768.477 6.28C771.757 9.8 773.397 14.96 773.397 21.76V32.68C773.397 39.48 771.757 44.64 768.477 48.16C765.197 51.68 760.277 53.44 753.717 53.44H747.477V85H734.277V0.999994H753.717ZM747.477 41.44H753.717C755.877 41.44 757.477 40.84 758.517 39.64C759.637 38.44 760.197 36.4 760.197 33.52V20.92C760.197 18.04 759.637 16 758.517 14.8C757.477 13.6 755.877 13 753.717 13H747.477V41.44ZM792.711 0.999994V73H814.431V85H779.511V0.999994H792.711ZM849.575 85L847.295 69.76H831.095L828.815 85H816.695L830.135 0.999994H849.455L862.895 85H849.575ZM845.495 58.36L839.135 15.88L832.775 58.36H845.495ZM880.802 85H868.922V0.999994H885.482L899.042 51.28V0.999994H910.802V85H897.242L880.802 24.16V85ZM951.573 36.4V48.4H933.453V73H956.253V85H920.253V0.999994H956.253V13H933.453V36.4H951.573ZM1001.39 0.999994V13H987.593V85H974.393V13H960.593V0.999994H1001.39Z" fill="white"/>
<path d="M32.12 36.4H33.12V35.4H32.12V36.4ZM32.12 48.4V49.4H33.12V48.4H32.12ZM14 48.4V47.4H13V48.4H14ZM14 73H13V74H14V73ZM36.8 73H37.8V72H36.8V73ZM36.8 85V86H37.8V85H36.8ZM0.8 85H-0.2V86H0.8V85ZM0.8 0.999994V-5.72205e-06H-0.2V0.999994H0.8ZM36.8 0.999994H37.8V-5.72205e-06H36.8V0.999994ZM36.8 13V14H37.8V13H36.8ZM14 13V12H13V13H14ZM14 36.4H13V37.4H14V36.4ZM31.12 36.4V48.4H33.12V36.4H31.12ZM32.12 47.4H14V49.4H32.12V47.4ZM13 48.4V73H15V48.4H13ZM14 74H36.8V72H14V74ZM35.8 73V85H37.8V73H35.8ZM36.8 84H0.8V86H36.8V84ZM1.8 85V0.999994H-0.2V85H1.8ZM0.8 1.99999H36.8V-5.72205e-06H0.8V1.99999ZM35.8 0.999994V13H37.8V0.999994H35.8ZM36.8 12H14V14H36.8V12ZM13 13V36.4H15V13H13ZM14 37.4H32.12V35.4H14V37.4ZM75.2197 41.8L74.2724 41.4796L74.1635 41.8016L74.2734 42.1233L75.2197 41.8ZM89.9797 85V86H91.3781L90.926 84.6767L89.9797 85ZM76.0597 85L75.1086 85.309L75.3331 86H76.0597V85ZM65.2597 51.76L66.2107 51.451L65.2649 48.54L64.3096 51.4479L65.2597 51.76ZM54.3397 85V86H55.0637L55.2897 85.3121L54.3397 85ZM41.9797 85L41.0334 84.6767L40.5813 86H41.9797V85ZM56.7397 41.8L57.686 42.1233L57.7959 41.8016L57.687 41.4796L56.7397 41.8ZM42.9397 0.999994V-5.72205e-06H41.5458L41.9924 1.3204L42.9397 0.999994ZM56.6197 0.999994L57.5716 0.693747L57.3485 -5.72205e-06H56.6197V0.999994ZM66.5797 31.96L65.6277 32.2662L66.5684 35.1901L67.5295 32.2729L66.5797 31.96ZM76.7797 0.999994V-5.72205e-06H76.0563L75.8299 0.687082L76.7797 0.999994ZM89.0197 0.999994L89.967 1.3204L90.4136 -5.72205e-06H89.0197V0.999994ZM74.2734 42.1233L89.0334 85.3233L90.926 84.6767L76.166 41.4767L74.2734 42.1233ZM89.9797 84H76.0597V86H89.9797V84ZM77.0107 84.691L66.2107 51.451L64.3086 52.069L75.1086 85.309L77.0107 84.691ZM64.3096 51.4479L53.3896 84.6879L55.2897 85.3121L66.2097 52.0721L64.3096 51.4479ZM54.3397 84H41.9797V86H54.3397V84ZM42.926 85.3233L57.686 42.1233L55.7934 41.4767L41.0334 84.6767L42.926 85.3233ZM57.687 41.4796L43.887 0.67959L41.9924 1.3204L55.7924 42.1204L57.687 41.4796ZM42.9397 1.99999H56.6197V-5.72205e-06H42.9397V1.99999ZM55.6677 1.30624L65.6277 32.2662L67.5316 31.6537L57.5716 0.693747L55.6677 1.30624ZM67.5295 32.2729L77.7295 1.31291L75.8299 0.687082L65.6299 31.6471L67.5295 32.2729ZM76.7797 1.99999H89.0197V-5.72205e-06H76.7797V1.99999ZM88.0724 0.67959L74.2724 41.4796L76.167 42.1204L89.967 1.3204L88.0724 0.67959ZM130.742 6.28L130.011 6.96172H130.011L130.742 6.28ZM109.742 53.44V52.44H108.742V53.44H109.742ZM109.742 85V86H110.742V85H109.742ZM96.5422 85H95.5422V86H96.5422V85ZM96.5422 0.999994V-5.72205e-06H95.5422V0.999994H96.5422ZM109.742 41.44H108.742V42.44H109.742V41.44ZM120.782 39.64L120.051 38.9577L120.039 38.9711L120.026 38.9851L120.782 39.64ZM120.782 14.8L120.026 15.4549L120.039 15.4688L120.051 15.4823L120.782 14.8ZM109.742 13V12H108.742V13H109.742ZM115.982 1.99999C122.369 1.99999 126.981 3.71027 130.011 6.96172L131.474 5.59827C127.944 1.80972 122.715 -5.72205e-06 115.982 -5.72205e-06V1.99999ZM130.011 6.96172C133.058 10.2321 134.662 15.1084 134.662 21.76H136.662C136.662 14.8116 134.986 9.36787 131.474 5.59827L130.011 6.96172ZM134.662 21.76V32.68H136.662V21.76H134.662ZM134.662 32.68C134.662 39.3316 133.058 44.2079 130.011 47.4783L131.474 48.8417C134.986 45.0721 136.662 39.6284 136.662 32.68H134.662ZM130.011 47.4783C126.981 50.7297 122.369 52.44 115.982 52.44V54.44C122.715 54.44 127.944 52.6303 131.474 48.8417L130.011 47.4783ZM115.982 52.44H109.742V54.44H115.982V52.44ZM108.742 53.44V85H110.742V53.44H108.742ZM109.742 84H96.5422V86H109.742V84ZM97.5422 85V0.999994H95.5422V85H97.5422ZM96.5422 1.99999H115.982V-5.72205e-06H96.5422V1.99999ZM109.742 42.44H115.982V40.44H109.742V42.44ZM115.982 42.44C118.323 42.44 120.246 41.7852 121.538 40.2949L120.026 38.9851C119.238 39.8948 117.962 40.44 115.982 40.44V42.44ZM121.513 40.3223C122.897 38.84 123.462 36.4784 123.462 33.52H121.462C121.462 36.3216 120.908 38.04 120.051 38.9577L121.513 40.3223ZM123.462 33.52V20.92H121.462V33.52H123.462ZM123.462 20.92C123.462 17.9616 122.897 15.6 121.513 14.1177L120.051 15.4823C120.908 16.4 121.462 18.1184 121.462 20.92H123.462ZM121.538 14.1451C120.246 12.6548 118.323 12 115.982 12V14C117.962 14 119.238 14.5452 120.026 15.4549L121.538 14.1451ZM115.982 12H109.742V14H115.982V12ZM108.742 13V41.44H110.742V13H108.742ZM154.977 0.999994H155.977V-5.72205e-06H154.977V0.999994ZM154.977 73H153.977V74H154.977V73ZM176.697 73H177.697V72H176.697V73ZM176.697 85V86H177.697V85H176.697ZM141.777 85H140.777V86H141.777V85ZM141.777 0.999994V-5.72205e-06H140.777V0.999994H141.777ZM153.977 0.999994V73H155.977V0.999994H153.977ZM154.977 74H176.697V72H154.977V74ZM175.697 73V85H177.697V73H175.697ZM176.697 84H141.777V86H176.697V84ZM142.777 85V0.999994H140.777V85H142.777ZM141.777 1.99999H154.977V-5.72205e-06H141.777V1.99999ZM186.521 5.55999L185.79 4.87711V4.87711L186.521 5.55999ZM216.281 5.55999L217.011 4.87711V4.87711L216.281 5.55999ZM216.281 80.44L217.011 81.1229L216.281 80.44ZM186.521 80.44L185.79 81.1229L186.521 80.44ZM182.361 21.16C182.361 14.607 184.036 9.68283 187.251 6.24288L185.79 4.87711C182.126 8.79716 180.361 14.273 180.361 21.16H182.361ZM187.251 6.24288C190.452 2.81921 195.114 1.04 201.401 1.04V-0.960001C194.728 -0.960001 189.47 0.940783 185.79 4.87711L187.251 6.24288ZM201.401 1.04C207.688 1.04 212.35 2.81921 215.55 6.24288L217.011 4.87711C213.332 0.940783 208.074 -0.960001 201.401 -0.960001V1.04ZM215.55 6.24288C218.766 9.68283 220.441 14.607 220.441 21.16H222.441C222.441 14.273 220.676 8.79716 217.011 4.87711L215.55 6.24288ZM220.441 21.16V64.84H222.441V21.16H220.441ZM220.441 64.84C220.441 71.393 218.766 76.3172 215.55 79.7571L217.011 81.1229C220.676 77.2028 222.441 71.727 222.441 64.84H220.441ZM215.55 79.7571C212.35 83.1808 207.688 84.96 201.401 84.96V86.96C208.074 86.96 213.332 85.0592 217.011 81.1229L215.55 79.7571ZM201.401 84.96C195.114 84.96 190.452 83.1808 187.251 79.7571L185.79 81.1229C189.47 85.0592 194.728 86.96 201.401 86.96V84.96ZM187.251 79.7571C184.036 76.3172 182.361 71.393 182.361 64.84H180.361C180.361 71.727 182.126 77.2028 185.79 81.1229L187.251 79.7571ZM182.361 64.84V21.16H180.361V64.84H182.361ZM193.561 65.68C193.561 68.5526 194.15 70.893 195.5 72.5269C196.88 74.1973 198.911 74.96 201.401 74.96V72.96C199.33 72.96 197.942 72.3427 197.042 71.2531C196.111 70.127 195.561 68.3274 195.561 65.68H193.561ZM201.401 74.96C203.89 74.96 205.922 74.1973 207.302 72.5269C208.651 70.893 209.241 68.5526 209.241 65.68H207.241C207.241 68.3274 206.69 70.127 205.76 71.2531C204.86 72.3427 203.471 72.96 201.401 72.96V74.96ZM209.241 65.68V20.32H207.241V65.68H209.241ZM209.241 20.32C209.241 17.4474 208.651 15.107 207.302 13.4731C205.922 11.8027 203.89 11.04 201.401 11.04V13.04C203.471 13.04 204.86 13.6573 205.76 14.7469C206.69 15.873 207.241 17.6726 207.241 20.32H209.241ZM201.401 11.04C198.911 11.04 196.88 11.8027 195.5 13.4731C194.15 15.107 193.561 17.4474 193.561 20.32H195.561C195.561 17.6726 196.111 15.873 197.042 14.7469C197.942 13.6573 199.33 13.04 201.401 13.04V11.04ZM193.561 20.32V65.68H195.561V20.32H193.561ZM257.619 85L256.676 85.3328L256.911 86H257.619V85ZM256.659 81.16L257.65 81.0278V81.0278L256.659 81.16ZM254.379 53.32L253.602 53.9492L253.609 53.9585L253.617 53.9677L254.379 53.32ZM243.219 50.8V49.8H242.219V50.8H243.219ZM243.219 85V86H244.219V85H243.219ZM230.019 85H229.019V86H230.019V85ZM230.019 0.999994V-5.72205e-06H229.019V0.999994H230.019ZM264.819 5.8L264.103 6.49815L264.112 6.5071L264.819 5.8ZM260.859 43.96L260.432 43.0558L258.381 44.0243L260.479 44.8852L260.859 43.96ZM267.579 50.44L266.666 50.8484L266.67 50.8575L267.579 50.44ZM269.859 80.68L268.864 80.7847L268.865 80.7904L269.859 80.68ZM271.059 85V86H272.598L271.973 84.5939L271.059 85ZM243.219 38.8H242.219V39.8H243.219V38.8ZM254.259 36.76L253.552 36.0529L253.541 36.0636L253.531 36.0746L254.259 36.76ZM254.619 15.04L253.824 15.6474L253.835 15.6618L253.847 15.6757L254.619 15.04ZM243.219 13V12H242.219V13H243.219ZM258.562 84.6672C258.1 83.3603 257.799 82.148 257.65 81.0278L255.668 81.2922C255.838 82.572 256.177 83.9197 256.676 85.3328L258.562 84.6672ZM257.65 81.0278C257.5 79.9019 257.419 77.8035 257.419 74.68H255.419C255.419 77.7965 255.498 80.0181 255.668 81.2922L257.65 81.0278ZM257.419 74.68V61.48H255.419V74.68H257.419ZM257.419 61.48C257.419 57.577 256.738 54.5521 255.141 52.6723L253.617 53.9677C254.739 55.2879 255.419 57.703 255.419 61.48H257.419ZM255.156 52.6908C253.538 50.6918 250.992 49.8 247.779 49.8V51.8C250.646 51.8 252.5 52.5882 253.602 53.9492L255.156 52.6908ZM247.779 49.8H243.219V51.8H247.779V49.8ZM242.219 50.8V85H244.219V50.8H242.219ZM243.219 84H230.019V86H243.219V84ZM231.019 85V0.999994H229.019V85H231.019ZM230.019 1.99999H249.939V-5.72205e-06H230.019V1.99999ZM249.939 1.99999C256.608 1.99999 261.25 3.57185 264.103 6.4981L265.535 5.1019C262.148 1.62814 256.87 -5.72205e-06 249.939 -5.72205e-06V1.99999ZM264.112 6.5071C266.97 9.36516 268.499 13.8972 268.499 20.32H270.499C270.499 13.6228 268.908 8.47483 265.526 5.09289L264.112 6.5071ZM268.499 20.32V26.92H270.499V20.32H268.499ZM268.499 26.92C268.499 35.3351 265.716 40.5604 260.432 43.0558L261.286 44.8642C267.521 41.9196 270.499 35.7849 270.499 26.92H268.499ZM260.479 44.8852C263.365 46.0691 265.412 48.046 266.666 50.8484L268.492 50.0316C267.025 46.754 264.592 44.4109 261.238 43.0348L260.479 44.8852ZM266.67 50.8575C267.95 53.6432 268.619 57.2873 268.619 61.84H270.619C270.619 57.1127 269.927 53.1568 268.487 50.0225L266.67 50.8575ZM268.619 61.84V74.8H270.619V61.84H268.619ZM268.619 74.8C268.619 77.2177 268.699 79.2162 268.864 80.7847L270.853 80.5753C270.698 79.1038 270.619 77.1823 270.619 74.8H268.619ZM268.865 80.7904C269.037 82.3411 269.467 83.8805 270.145 85.4061L271.973 84.5939C271.371 83.2395 271 81.8989 270.853 80.5696L268.865 80.7904ZM271.059 84H257.619V86H271.059V84ZM243.219 39.8H248.379V37.8H243.219V39.8ZM248.379 39.8C251.178 39.8 253.451 39.0776 254.987 37.4454L253.531 36.0746C252.507 37.1624 250.859 37.8 248.379 37.8V39.8ZM254.966 37.4671C256.605 35.8278 257.299 33.2186 257.299 29.92H255.299C255.299 33.0214 254.632 34.9722 253.552 36.0529L254.966 37.4671ZM257.299 29.92V21.64H255.299V29.92H257.299ZM257.299 21.64C257.299 18.5206 256.732 16.0335 255.391 14.4043L253.847 15.6757C254.745 16.7665 255.299 18.6794 255.299 21.64H257.299ZM255.413 14.4326C254.122 12.744 252.091 12 249.579 12V14C251.706 14 253.036 14.616 253.824 15.6474L255.413 14.4326ZM249.579 12H243.219V14H249.579V12ZM242.219 13V38.8H244.219V13H242.219ZM309.62 36.4H310.62V35.4H309.62V36.4ZM309.62 48.4V49.4H310.62V48.4H309.62ZM291.5 48.4V47.4H290.5V48.4H291.5ZM291.5 73H290.5V74H291.5V73ZM314.3 73H315.3V72H314.3V73ZM314.3 85V86H315.3V85H314.3ZM278.3 85H277.3V86H278.3V85ZM278.3 0.999994V-5.72205e-06H277.3V0.999994H278.3ZM314.3 0.999994H315.3V-5.72205e-06H314.3V0.999994ZM314.3 13V14H315.3V13H314.3ZM291.5 13V12H290.5V13H291.5ZM291.5 36.4H290.5V37.4H291.5V36.4ZM308.62 36.4V48.4H310.62V36.4H308.62ZM309.62 47.4H291.5V49.4H309.62V47.4ZM290.5 48.4V73H292.5V48.4H290.5ZM291.5 74H314.3V72H291.5V74ZM313.3 73V85H315.3V73H313.3ZM314.3 84H278.3V86H314.3V84ZM279.3 85V0.999994H277.3V85H279.3ZM278.3 1.99999H314.3V-5.72205e-06H278.3V1.99999ZM313.3 0.999994V13H315.3V0.999994H313.3ZM314.3 12H291.5V14H314.3V12ZM290.5 13V36.4H292.5V13H290.5ZM291.5 37.4H309.62V35.4H291.5V37.4ZM336.793 0.999994V-5.72205e-06H335.452L335.834 1.28471L336.793 0.999994ZM350.592 0.999994L351.56 0.745352L351.363 -5.72205e-06H350.592V0.999994ZM360.673 39.28L359.705 39.5346L360.673 43.2071L361.64 39.5346L360.673 39.28ZM370.753 0.999994V-5.72205e-06H369.982L369.785 0.745352L370.753 0.999994ZM383.353 0.999994L384.311 1.28471L384.693 -5.72205e-06H383.353V0.999994ZM366.673 57.16L365.714 56.8753L365.673 57.0146V57.16H366.673ZM366.673 85V86H367.673V85H366.673ZM353.473 85H352.473V86H353.473V85ZM353.473 57.16H354.473V57.0146L354.431 56.8753L353.473 57.16ZM336.793 1.99999H350.592V-5.72205e-06H336.793V1.99999ZM349.625 1.25464L359.705 39.5346L361.64 39.0254L351.56 0.745352L349.625 1.25464ZM361.64 39.5346L371.72 1.25464L369.785 0.745352L359.705 39.0254L361.64 39.5346ZM370.753 1.99999H383.353V-5.72205e-06H370.753V1.99999ZM382.394 0.715279L365.714 56.8753L367.631 57.4447L384.311 1.28471L382.394 0.715279ZM365.673 57.16V85H367.673V57.16H365.673ZM366.673 84H353.473V86H366.673V84ZM354.473 85V57.16H352.473V85H354.473ZM354.431 56.8753L337.751 0.715279L335.834 1.28471L352.514 57.4447L354.431 56.8753ZM391.013 5.55999L390.282 4.87711V4.87711L391.013 5.55999ZM420.773 5.55999L421.503 4.87711V4.87711L420.773 5.55999ZM420.773 80.44L421.503 81.1229L420.773 80.44ZM391.013 80.44L390.282 81.1229L391.013 80.44ZM386.853 21.16C386.853 14.607 388.528 9.68283 391.743 6.24288L390.282 4.87711C386.618 8.79716 384.853 14.273 384.853 21.16H386.853ZM391.743 6.24288C394.944 2.81921 399.606 1.04 405.893 1.04V-0.960001C399.22 -0.960001 393.962 0.940783 390.282 4.87711L391.743 6.24288ZM405.893 1.04C412.18 1.04 416.842 2.81921 420.042 6.24288L421.503 4.87711C417.824 0.940783 412.566 -0.960001 405.893 -0.960001V1.04ZM420.042 6.24288C423.258 9.68283 424.933 14.607 424.933 21.16H426.933C426.933 14.273 425.168 8.79716 421.503 4.87711L420.042 6.24288ZM424.933 21.16V64.84H426.933V21.16H424.933ZM424.933 64.84C424.933 71.393 423.258 76.3172 420.042 79.7571L421.503 81.1229C425.168 77.2028 426.933 71.727 426.933 64.84H424.933ZM420.042 79.7571C416.842 83.1808 412.18 84.96 405.893 84.96V86.96C412.566 86.96 417.824 85.0592 421.503 81.1229L420.042 79.7571ZM405.893 84.96C399.606 84.96 394.944 83.1808 391.743 79.7571L390.282 81.1229C393.962 85.0592 399.22 86.96 405.893 86.96V84.96ZM391.743 79.7571C388.528 76.3172 386.853 71.393 386.853 64.84H384.853C384.853 71.727 386.618 77.2028 390.282 81.1229L391.743 79.7571ZM386.853 64.84V21.16H384.853V64.84H386.853ZM398.053 65.68C398.053 68.5526 398.642 70.893 399.992 72.5269C401.372 74.1973 403.403 74.96 405.893 74.96V72.96C403.823 72.96 402.434 72.3427 401.534 71.2531C400.603 70.127 400.053 68.3274 400.053 65.68H398.053ZM405.893 74.96C408.383 74.96 410.414 74.1973 411.794 72.5269C413.143 70.893 413.733 68.5526 413.733 65.68H411.733C411.733 68.3274 411.182 70.127 410.252 71.2531C409.352 72.3427 407.963 72.96 405.893 72.96V74.96ZM413.733 65.68V20.32H411.733V65.68H413.733ZM413.733 20.32C413.733 17.4474 413.143 15.107 411.794 13.4731C410.414 11.8027 408.383 11.04 405.893 11.04V13.04C407.963 13.04 409.352 13.6573 410.252 14.7469C411.182 15.873 411.733 17.6726 411.733 20.32H413.733ZM405.893 11.04C403.403 11.04 401.372 11.8027 399.992 13.4731C398.642 15.107 398.053 17.4474 398.053 20.32H400.053C400.053 17.6726 400.603 15.873 401.534 14.7469C402.434 13.6573 403.823 13.04 405.893 13.04V11.04ZM398.053 20.32V65.68H400.053V20.32H398.053ZM460.791 0.999994V-5.72205e-06H459.791V0.999994H460.791ZM473.271 0.999994H474.271V-5.72205e-06H473.271V0.999994ZM468.231 80.68L468.962 81.3624L468.969 81.3543L468.231 80.68ZM438.951 80.68L438.212 81.3543L438.22 81.3623L438.951 80.68ZM433.911 0.999994V-5.72205e-06H432.911V0.999994H433.911ZM447.111 0.999994H448.111V-5.72205e-06H447.111V0.999994ZM446.111 65.8C446.111 68.6353 446.701 70.9481 448.055 72.5624C449.436 74.2105 451.466 74.96 453.951 74.96V72.96C451.876 72.96 450.486 72.3495 449.587 71.2776C448.66 70.1719 448.111 68.4047 448.111 65.8H446.111ZM453.951 74.96C456.436 74.96 458.466 74.2105 459.847 72.5624C461.2 70.9481 461.791 68.6353 461.791 65.8H459.791C459.791 68.4047 459.241 70.1719 458.315 71.2776C457.416 72.3495 456.026 72.96 453.951 72.96V74.96ZM461.791 65.8V0.999994H459.791V65.8H461.791ZM460.791 1.99999H473.271V-5.72205e-06H460.791V1.99999ZM472.271 0.999994V64.96H474.271V0.999994H472.271ZM472.271 64.96C472.271 71.6024 470.631 76.5682 467.492 80.0057L468.969 81.3543C472.551 77.4318 474.271 71.9176 474.271 64.96H472.271ZM467.5 79.9977C464.381 83.3389 459.801 85.08 453.591 85.08V87.08C460.181 87.08 465.36 85.2211 468.962 81.3623L467.5 79.9977ZM453.591 85.08C447.381 85.08 442.8 83.3389 439.682 79.9977L438.22 81.3623C441.821 85.2211 447.001 87.08 453.591 87.08V85.08ZM439.689 80.0057C436.551 76.5682 434.911 71.6024 434.911 64.96H432.911C432.911 71.9176 434.631 77.4318 438.212 81.3543L439.689 80.0057ZM434.911 64.96V0.999994H432.911V64.96H434.911ZM433.911 1.99999H447.111V-5.72205e-06H433.911V1.99999ZM446.111 0.999994V65.8H448.111V0.999994H446.111ZM509.923 85L508.98 85.3328L509.216 86H509.923V85ZM508.963 81.16L509.955 81.0278V81.0278L508.963 81.16ZM506.683 53.32L505.906 53.9492L505.914 53.9585L505.922 53.9677L506.683 53.32ZM495.523 50.8V49.8H494.523V50.8H495.523ZM495.523 85V86H496.523V85H495.523ZM482.323 85H481.323V86H482.323V85ZM482.323 0.999994V-5.72205e-06H481.323V0.999994H482.323ZM517.123 5.8L516.407 6.49815L516.416 6.5071L517.123 5.8ZM513.163 43.96L512.736 43.0558L510.685 44.0243L512.784 44.8852L513.163 43.96ZM519.883 50.44L518.971 50.8484L518.975 50.8575L519.883 50.44ZM522.163 80.68L521.169 80.7847L521.17 80.7904L522.163 80.68ZM523.363 85V86H524.902L524.277 84.5939L523.363 85ZM495.523 38.8H494.523V39.8H495.523V38.8ZM506.563 36.76L505.856 36.0529L505.846 36.0636L505.835 36.0746L506.563 36.76ZM506.923 15.04L506.129 15.6474L506.14 15.6618L506.152 15.6757L506.923 15.04ZM495.523 13V12H494.523V13H495.523ZM510.866 84.6672C510.405 83.3603 510.104 82.148 509.955 81.0278L507.972 81.2922C508.143 82.572 508.482 83.9197 508.98 85.3328L510.866 84.6672ZM509.955 81.0278C509.805 79.9019 509.723 77.8035 509.723 74.68H507.723C507.723 77.7965 507.802 80.0181 507.972 81.2922L509.955 81.0278ZM509.723 74.68V61.48H507.723V74.68H509.723ZM509.723 61.48C509.723 57.577 509.043 54.5521 507.445 52.6723L505.922 53.9677C507.044 55.2879 507.723 57.703 507.723 61.48H509.723ZM507.461 52.6908C505.842 50.6918 503.297 49.8 500.083 49.8V51.8C502.95 51.8 504.804 52.5882 505.906 53.9492L507.461 52.6908ZM500.083 49.8H495.523V51.8H500.083V49.8ZM494.523 50.8V85H496.523V50.8H494.523ZM495.523 84H482.323V86H495.523V84ZM483.323 85V0.999994H481.323V85H483.323ZM482.323 1.99999H502.243V-5.72205e-06H482.323V1.99999ZM502.243 1.99999C508.913 1.99999 513.554 3.57185 516.407 6.4981L517.839 5.1019C514.453 1.62814 509.174 -5.72205e-06 502.243 -5.72205e-06V1.99999ZM516.416 6.5071C519.274 9.36516 520.803 13.8972 520.803 20.32H522.803C522.803 13.6228 521.212 8.47483 517.831 5.09289L516.416 6.5071ZM520.803 20.32V26.92H522.803V20.32H520.803ZM520.803 26.92C520.803 35.3351 518.021 40.5604 512.736 43.0558L513.59 44.8642C519.826 41.9196 522.803 35.7849 522.803 26.92H520.803ZM512.784 44.8852C515.67 46.0691 517.717 48.046 518.971 50.8484L520.796 50.0316C519.33 46.754 516.897 44.4109 513.543 43.0348L512.784 44.8852ZM518.975 50.8575C520.255 53.6432 520.923 57.2873 520.923 61.84H522.923C522.923 57.1127 522.232 53.1568 520.792 50.0225L518.975 50.8575ZM520.923 61.84V74.8H522.923V61.84H520.923ZM520.923 74.8C520.923 77.2177 521.004 79.2162 521.169 80.7847L523.158 80.5753C523.003 79.1038 522.923 77.1823 522.923 74.8H520.923ZM521.17 80.7904C521.342 82.3411 521.772 83.8805 522.45 85.4061L524.277 84.5939C523.675 83.2395 523.305 81.8989 523.157 80.5696L521.17 80.7904ZM523.363 84H509.923V86H523.363V84ZM495.523 39.8H500.683V37.8H495.523V39.8ZM500.683 39.8C503.483 39.8 505.755 39.0776 507.292 37.4454L505.835 36.0746C504.811 37.1624 503.164 37.8 500.683 37.8V39.8ZM507.271 37.4671C508.91 35.8278 509.603 33.2186 509.603 29.92H507.603C507.603 33.0214 506.937 34.9722 505.856 36.0529L507.271 37.4671ZM509.603 29.92V21.64H507.603V29.92H509.603ZM509.603 21.64C509.603 18.5206 509.037 16.0335 507.695 14.4043L506.152 15.6757C507.05 16.7665 507.603 18.6794 507.603 21.64H509.603ZM507.718 14.4326C506.427 12.744 504.396 12 501.883 12V14C504.011 14 505.34 14.616 506.129 15.6474L507.718 14.4326ZM501.883 12H495.523V14H501.883V12ZM494.523 13V38.8H496.523V13H494.523ZM553.318 5.55999L552.587 4.87711V4.87711L553.318 5.55999ZM583.078 5.55999L583.808 4.87711V4.87711L583.078 5.55999ZM583.078 80.44L583.808 81.1229L583.078 80.44ZM553.318 80.44L552.587 81.1229L553.318 80.44ZM549.157 21.16C549.157 14.607 550.832 9.68283 554.048 6.24288L552.587 4.87711C548.923 8.79716 547.157 14.273 547.157 21.16H549.157ZM554.048 6.24288C557.248 2.81921 561.911 1.04 568.198 1.04V-0.960001C561.524 -0.960001 556.267 0.940783 552.587 4.87711L554.048 6.24288ZM568.198 1.04C574.484 1.04 579.147 2.81921 582.347 6.24288L583.808 4.87711C580.128 0.940783 574.871 -0.960001 568.198 -0.960001V1.04ZM582.347 6.24288C585.563 9.68283 587.237 14.607 587.237 21.16H589.237C589.237 14.273 587.472 8.79716 583.808 4.87711L582.347 6.24288ZM587.237 21.16V64.84H589.237V21.16H587.237ZM587.237 64.84C587.237 71.393 585.563 76.3172 582.347 79.7571L583.808 81.1229C587.472 77.2028 589.237 71.727 589.237 64.84H587.237ZM582.347 79.7571C579.147 83.1808 574.484 84.96 568.198 84.96V86.96C574.871 86.96 580.128 85.0592 583.808 81.1229L582.347 79.7571ZM568.198 84.96C561.911 84.96 557.248 83.1808 554.048 79.7571L552.587 81.1229C556.267 85.0592 561.524 86.96 568.198 86.96V84.96ZM554.048 79.7571C550.832 76.3172 549.157 71.393 549.157 64.84H547.157C547.157 71.727 548.923 77.2028 552.587 81.1229L554.048 79.7571ZM549.157 64.84V21.16H547.157V64.84H549.157ZM560.357 65.68C560.357 68.5526 560.947 70.893 562.297 72.5269C563.676 74.1973 565.708 74.96 568.198 74.96V72.96C566.127 72.96 564.739 72.3427 563.838 71.2531C562.908 70.127 562.357 68.3274 562.357 65.68H560.357ZM568.198 74.96C570.687 74.96 572.719 74.1973 574.098 72.5269C575.448 70.893 576.037 68.5526 576.037 65.68H574.037C574.037 68.3274 573.487 70.127 572.557 71.2531C571.656 72.3427 570.268 72.96 568.198 72.96V74.96ZM576.037 65.68V20.32H574.037V65.68H576.037ZM576.037 20.32C576.037 17.4474 575.448 15.107 574.098 13.4731C572.719 11.8027 570.687 11.04 568.198 11.04V13.04C570.268 13.04 571.656 13.6573 572.557 14.7469C573.487 15.873 574.037 17.6726 574.037 20.32H576.037ZM568.198 11.04C565.708 11.04 563.676 11.8027 562.297 13.4731C560.947 15.107 560.357 17.4474 560.357 20.32H562.357C562.357 17.6726 562.908 15.873 563.838 14.7469C564.739 13.6573 566.127 13.04 568.198 13.04V11.04ZM560.357 20.32V65.68H562.357V20.32H560.357ZM621.296 85V86H622.194L622.29 85.1066L621.296 85ZM603.176 85L602.182 85.1107L602.281 86H603.176V85ZM593.816 0.999994V-5.72205e-06H592.698L592.822 1.11074L593.816 0.999994ZM606.656 0.999994L607.65 0.893715L607.554 -5.72205e-06H606.656V0.999994ZM613.736 67.24L612.741 67.3463L614.731 67.3356L613.736 67.24ZM620.096 0.999994V-5.72205e-06H619.187L619.1 0.904419L620.096 0.999994ZM632.816 0.999994L633.811 0.901554L633.722 -5.72205e-06H632.816V0.999994ZM639.416 67.72L638.42 67.8184L640.41 67.822L639.416 67.72ZM646.256 0.999994V-5.72205e-06H645.353L645.261 0.89801L646.256 0.999994ZM657.776 0.999994L658.769 1.11074L658.893 -5.72205e-06H657.776V0.999994ZM648.416 85V86H649.31L649.409 85.1107L648.416 85ZM630.896 85L629.901 85.1066L629.997 86H630.896V85ZM626.096 40.24L627.09 40.1334H625.101L626.096 40.24ZM621.296 84H603.176V86H621.296V84ZM604.169 84.8893L594.809 0.889252L592.822 1.11074L602.182 85.1107L604.169 84.8893ZM593.816 1.99999H606.656V-5.72205e-06H593.816V1.99999ZM605.661 1.10627L612.741 67.3463L614.73 67.1337L607.65 0.893715L605.661 1.10627ZM614.731 67.3356L621.091 1.09557L619.1 0.904419L612.74 67.1444L614.731 67.3356ZM620.096 1.99999H632.816V-5.72205e-06H620.096V1.99999ZM631.82 1.09843L638.42 67.8184L640.411 67.6216L633.811 0.901554L631.82 1.09843ZM640.41 67.822L647.25 1.10198L645.261 0.89801L638.421 67.618L640.41 67.822ZM646.256 1.99999H657.776V-5.72205e-06H646.256V1.99999ZM656.782 0.889252L647.422 84.8893L649.409 85.1107L658.769 1.11074L656.782 0.889252ZM648.416 84H630.896V86H648.416V84ZM631.89 84.8934L627.09 40.1334L625.101 40.3466L629.901 85.1066L631.89 84.8934ZM625.101 40.1334L620.301 84.8934L622.29 85.1066L627.09 40.3466L625.101 40.1334ZM676.193 85V86H677.193V85H676.193ZM664.313 85H663.313V86H664.313V85ZM664.313 0.999994V-5.72205e-06H663.313V0.999994H664.313ZM680.873 0.999994L681.838 0.739607L681.639 -5.72205e-06H680.873V0.999994ZM694.433 51.28L693.467 51.5404L695.433 51.28H694.433ZM694.433 0.999994V-5.72205e-06H693.433V0.999994H694.433ZM706.193 0.999994H707.193V-5.72205e-06H706.193V0.999994ZM706.193 85V86H707.193V85H706.193ZM692.633 85L691.667 85.2609L691.867 86H692.633V85ZM676.193 24.16L677.158 23.8991L675.193 24.16H676.193ZM676.193 84H664.313V86H676.193V84ZM665.313 85V0.999994H663.313V85H665.313ZM664.313 1.99999H680.873V-5.72205e-06H664.313V1.99999ZM679.907 1.26038L693.467 51.5404L695.398 51.0196L681.838 0.739607L679.907 1.26038ZM695.433 51.28V0.999994H693.433V51.28H695.433ZM694.433 1.99999H706.193V-5.72205e-06H694.433V1.99999ZM705.193 0.999994V85H707.193V0.999994H705.193ZM706.193 84H692.633V86H706.193V84ZM693.598 84.7391L677.158 23.8991L675.227 24.4209L691.667 85.2609L693.598 84.7391ZM675.193 24.16V85H677.193V24.16H675.193ZM768.477 6.28L767.745 6.96172L768.477 6.28ZM747.477 53.44V52.44H746.477V53.44H747.477ZM747.477 85V86H748.477V85H747.477ZM734.277 85H733.277V86H734.277V85ZM734.277 0.999994V-5.72205e-06H733.277V0.999994H734.277ZM747.477 41.44H746.477V42.44H747.477V41.44ZM758.517 39.64L757.786 38.9577L757.773 38.9711L757.761 38.9851L758.517 39.64ZM758.517 14.8L757.761 15.4549L757.773 15.4688L757.786 15.4823L758.517 14.8ZM747.477 13V12H746.477V13H747.477ZM753.717 1.99999C760.104 1.99999 764.715 3.71027 767.745 6.96172L769.208 5.59827C765.678 1.80972 760.45 -5.72205e-06 753.717 -5.72205e-06V1.99999ZM767.745 6.96172C770.792 10.2321 772.397 15.1084 772.397 21.76H774.397C774.397 14.8116 772.721 9.36787 769.208 5.59827L767.745 6.96172ZM772.397 21.76V32.68H774.397V21.76H772.397ZM772.397 32.68C772.397 39.3316 770.792 44.2079 767.745 47.4783L769.208 48.8417C772.721 45.0721 774.397 39.6284 774.397 32.68H772.397ZM767.745 47.4783C764.715 50.7297 760.104 52.44 753.717 52.44V54.44C760.45 54.44 765.678 52.6303 769.208 48.8417L767.745 47.4783ZM753.717 52.44H747.477V54.44H753.717V52.44ZM746.477 53.44V85H748.477V53.44H746.477ZM747.477 84H734.277V86H747.477V84ZM735.277 85V0.999994H733.277V85H735.277ZM734.277 1.99999H753.717V-5.72205e-06H734.277V1.99999ZM747.477 42.44H753.717V40.44H747.477V42.44ZM753.717 42.44C756.057 42.44 757.981 41.7852 759.272 40.2949L757.761 38.9851C756.972 39.8948 755.696 40.44 753.717 40.44V42.44ZM759.248 40.3223C760.631 38.84 761.197 36.4784 761.197 33.52H759.197C759.197 36.3216 758.642 38.04 757.786 38.9577L759.248 40.3223ZM761.197 33.52V20.92H759.197V33.52H761.197ZM761.197 20.92C761.197 17.9616 760.631 15.6 759.248 14.1177L757.786 15.4823C758.642 16.4 759.197 18.1184 759.197 20.92H761.197ZM759.272 14.1451C757.981 12.6548 756.057 12 753.717 12V14C755.696 14 756.972 14.5452 757.761 15.4549L759.272 14.1451ZM753.717 12H747.477V14H753.717V12ZM746.477 13V41.44H748.477V13H746.477ZM792.711 0.999994H793.711V-5.72205e-06H792.711V0.999994ZM792.711 73H791.711V74H792.711V73ZM814.431 73H815.431V72H814.431V73ZM814.431 85V86H815.431V85H814.431ZM779.511 85H778.511V86H779.511V85ZM779.511 0.999994V-5.72205e-06H778.511V0.999994H779.511ZM791.711 0.999994V73H793.711V0.999994H791.711ZM792.711 74H814.431V72H792.711V74ZM813.431 73V85H815.431V73H813.431ZM814.431 84H779.511V86H814.431V84ZM780.511 85V0.999994H778.511V85H780.511ZM779.511 1.99999H792.711V-5.72205e-06H779.511V1.99999ZM849.575 85L848.586 85.148L848.714 86H849.575V85ZM847.295 69.76L848.284 69.612L848.156 68.76H847.295V69.76ZM831.095 69.76V68.76H830.233L830.106 69.612L831.095 69.76ZM828.815 85V86H829.677L829.804 85.148L828.815 85ZM816.695 85L815.708 84.842L815.522 86H816.695V85ZM830.135 0.999994V-5.72205e-06H829.282L829.148 0.842003L830.135 0.999994ZM849.455 0.999994L850.442 0.842003L850.308 -5.72205e-06H849.455V0.999994ZM862.895 85V86H864.068L863.882 84.842L862.895 85ZM845.495 58.36V59.36H846.656L846.484 58.2119L845.495 58.36ZM839.135 15.88L840.124 15.7319H838.146L839.135 15.88ZM832.775 58.36L831.786 58.2119L831.614 59.36H832.775V58.36ZM850.564 84.852L848.284 69.612L846.306 69.908L848.586 85.148L850.564 84.852ZM847.295 68.76H831.095V70.76H847.295V68.76ZM830.106 69.612L827.826 84.852L829.804 85.148L832.084 69.908L830.106 69.612ZM828.815 84H816.695V86H828.815V84ZM817.682 85.158L831.122 1.15799L829.148 0.842003L815.708 84.842L817.682 85.158ZM830.135 1.99999H849.455V-5.72205e-06H830.135V1.99999ZM848.468 1.15799L861.908 85.158L863.882 84.842L850.442 0.842003L848.468 1.15799ZM862.895 84H849.575V86H862.895V84ZM846.484 58.2119L840.124 15.7319L838.146 16.0281L844.506 58.5081L846.484 58.2119ZM838.146 15.7319L831.786 58.2119L833.764 58.5081L840.124 16.0281L838.146 15.7319ZM832.775 59.36H845.495V57.36H832.775V59.36ZM880.802 85V86H881.802V85H880.802ZM868.922 85H867.922V86H868.922V85ZM868.922 0.999994V-5.72205e-06H867.922V0.999994H868.922ZM885.482 0.999994L886.448 0.739607L886.248 -5.72205e-06H885.482V0.999994ZM899.042 51.28L898.077 51.5404L900.042 51.28H899.042ZM899.042 0.999994V-5.72205e-06H898.042V0.999994H899.042ZM910.802 0.999994H911.802V-5.72205e-06H910.802V0.999994ZM910.802 85V86H911.802V85H910.802ZM897.242 85L896.277 85.2609L896.477 86H897.242V85ZM880.802 24.16L881.768 23.8991L879.802 24.16H880.802ZM880.802 84H868.922V86H880.802V84ZM869.922 85V0.999994H867.922V85H869.922ZM868.922 1.99999H885.482V-5.72205e-06H868.922V1.99999ZM884.517 1.26038L898.077 51.5404L900.008 51.0196L886.448 0.739607L884.517 1.26038ZM900.042 51.28V0.999994H898.042V51.28H900.042ZM899.042 1.99999H910.802V-5.72205e-06H899.042V1.99999ZM909.802 0.999994V85H911.802V0.999994H909.802ZM910.802 84H897.242V86H910.802V84ZM898.208 84.7391L881.768 23.8991L879.837 24.4209L896.277 85.2609L898.208 84.7391ZM879.802 24.16V85H881.802V24.16H879.802ZM951.573 36.4H952.573V35.4H951.573V36.4ZM951.573 48.4V49.4H952.573V48.4H951.573ZM933.453 48.4V47.4H932.453V48.4H933.453ZM933.453 73H932.453V74H933.453V73ZM956.253 73H957.253V72H956.253V73ZM956.253 85V86H957.253V85H956.253ZM920.253 85H919.253V86H920.253V85ZM920.253 0.999994V-5.72205e-06H919.253V0.999994H920.253ZM956.253 0.999994H957.253V-5.72205e-06H956.253V0.999994ZM956.253 13V14H957.253V13H956.253ZM933.453 13V12H932.453V13H933.453ZM933.453 36.4H932.453V37.4H933.453V36.4ZM950.573 36.4V48.4H952.573V36.4H950.573ZM951.573 47.4H933.453V49.4H951.573V47.4ZM932.453 48.4V73H934.453V48.4H932.453ZM933.453 74H956.253V72H933.453V74ZM955.253 73V85H957.253V73H955.253ZM956.253 84H920.253V86H956.253V84ZM921.253 85V0.999994H919.253V85H921.253ZM920.253 1.99999H956.253V-5.72205e-06H920.253V1.99999ZM955.253 0.999994V13H957.253V0.999994H955.253ZM956.253 12H933.453V14H956.253V12ZM932.453 13V36.4H934.453V13H932.453ZM933.453 37.4H951.573V35.4H933.453V37.4ZM1001.39 0.999994H1002.39V-5.72205e-06H1001.39V0.999994ZM1001.39 13V14H1002.39V13H1001.39ZM987.593 13V12H986.593V13H987.593ZM987.593 85V86H988.593V85H987.593ZM974.393 85H973.393V86H974.393V85ZM974.393 13H975.393V12H974.393V13ZM960.593 13H959.593V14H960.593V13ZM960.593 0.999994V-5.72205e-06H959.593V0.999994H960.593ZM1000.39 0.999994V13H1002.39V0.999994H1000.39ZM1001.39 12H987.593V14H1001.39V12ZM986.593 13V85H988.593V13H986.593ZM987.593 84H974.393V86H987.593V84ZM975.393 85V13H973.393V85H975.393ZM974.393 12H960.593V14H974.393V12ZM961.593 13V0.999994H959.593V13H961.593ZM960.593 1.99999H1001.39V-5.72205e-06H960.593V1.99999Z" fill="white"/>
</svg>
