<svg width="853" height="87" viewBox="0 0 853 87" fill="none" xmlns="http://www.w3.org/2000/svg">
<path d="M14 0.999994V85H0.8V0.999994H14ZM35.4116 85H23.5316V0.999994H40.0916L53.6516 51.28V0.999994H65.4116V85H51.8516L35.4116 24.16V85ZM474.401 0.999994H492.761V85H480.281V24.76L471.161 85H458.681L448.841 25.6V85H437.321V0.999994H455.681L465.401 60.64L474.401 0.999994ZM533.683 36.4V48.4H515.563V73H538.363V85H502.363V0.999994H538.363V13H515.563V36.4H533.683ZM583.502 0.999994V13H569.702V85H556.502V13H542.702V0.999994H583.502ZM614.145 85L611.865 69.76H595.665L593.385 85H581.265L594.705 0.999994H614.025L627.465 85H614.145ZM610.065 58.36L603.705 15.88L597.345 58.36H610.065ZM660.566 0.999994H672.686L659.726 85H640.046L627.086 0.999994H640.406L650.486 69.52L660.566 0.999994ZM710.167 36.4V48.4H692.047V73H714.847V85H678.847V0.999994H714.847V13H692.047V36.4H710.167ZM750.627 85C750.147 83.64 749.827 82.36 749.667 81.16C749.507 79.96 749.427 77.8 749.427 74.68V61.48C749.427 57.64 748.747 54.92 747.387 53.32C746.027 51.64 743.827 50.8 740.787 50.8H736.227V85H723.027V0.999994H742.947C749.747 0.999994 754.707 2.6 757.827 5.8C760.947 8.91999 762.507 13.76 762.507 20.32V26.92C762.507 35.56 759.627 41.24 753.867 43.96C756.987 45.24 759.227 47.4 760.587 50.44C761.947 53.4 762.627 57.2 762.627 61.84V74.8C762.627 77.2 762.707 79.16 762.867 80.68C763.027 82.12 763.427 83.56 764.067 85H750.627ZM736.227 38.8H741.387C744.027 38.8 745.987 38.12 747.267 36.76C748.627 35.4 749.307 33.12 749.307 29.92V21.64C749.307 18.6 748.747 16.4 747.627 15.04C746.587 13.68 744.907 13 742.587 13H736.227V38.8ZM769.628 21.16C769.628 14.36 771.268 9.15999 774.548 5.55999C777.828 1.88 782.668 0.0399995 789.068 0.0399995C795.468 0.0399995 800.308 1.88 803.588 5.55999C806.868 9.15999 808.508 14.36 808.508 21.16V23.8H796.028V20.32C796.028 17.44 795.468 15.36 794.348 14.08C793.228 12.72 791.588 12.04 789.428 12.04C787.268 12.04 785.628 12.72 784.508 14.08C783.388 15.36 782.828 17.44 782.828 20.32C782.828 23.84 783.748 26.92 785.588 29.56C787.508 32.2 790.348 35.2 794.108 38.56C797.228 41.44 799.748 44 801.668 46.24C803.588 48.4 805.228 51.04 806.588 54.16C807.948 57.28 808.628 60.84 808.628 64.84C808.628 71.64 806.948 76.88 803.588 80.56C800.228 84.16 795.348 85.96 788.948 85.96C782.548 85.96 777.668 84.16 774.308 80.56C770.948 76.88 769.268 71.64 769.268 64.84V59.68H781.748V65.68C781.748 71.12 784.028 73.84 788.588 73.84C793.148 73.84 795.428 71.12 795.428 65.68C795.428 62.16 794.468 59.08 792.548 56.44C790.708 53.8 787.908 50.8 784.148 47.44C781.028 44.56 778.508 42.04 776.588 39.88C774.668 37.64 773.028 34.96 771.668 31.84C770.308 28.72 769.628 25.16 769.628 21.16ZM847.511 36.4V48.4H829.391V73H852.191V85H816.191V0.999994H852.191V13H829.391V36.4H847.511Z" fill="white"/>
<path d="M92.4153 21.16C92.4153 14.44 94.1353 9.23999 97.5753 5.55999C101.015 1.88 105.975 0.0399995 112.455 0.0399995C118.935 0.0399995 123.895 1.88 127.335 5.55999C130.775 9.23999 132.495 14.44 132.495 21.16V64.84C132.495 71.56 130.775 76.76 127.335 80.44C123.895 84.12 118.935 85.96 112.455 85.96C105.975 85.96 101.015 84.12 97.5753 80.44C94.1353 76.76 92.4153 71.56 92.4153 64.84V21.16ZM105.615 65.68C105.615 71.2 107.895 73.96 112.455 73.96C117.015 73.96 119.295 71.2 119.295 65.68V20.32C119.295 14.8 117.015 12.04 112.455 12.04C107.895 12.04 105.615 14.8 105.615 20.32V65.68ZM153.673 65.8C153.673 71.24 155.953 73.96 160.513 73.96C165.073 73.96 167.353 71.24 167.353 65.8V0.999994H179.833V64.96C179.833 71.76 178.153 77 174.793 80.68C171.433 84.28 166.553 86.08 160.153 86.08C153.753 86.08 148.873 84.28 145.513 80.68C142.153 77 140.473 71.76 140.473 64.96V0.999994H153.673V65.8ZM216.486 85C216.006 83.64 215.686 82.36 215.526 81.16C215.366 79.96 215.286 77.8 215.286 74.68V61.48C215.286 57.64 214.606 54.92 213.246 53.32C211.886 51.64 209.686 50.8 206.646 50.8H202.086V85H188.886V0.999994H208.806C215.606 0.999994 220.566 2.6 223.686 5.8C226.806 8.91999 228.366 13.76 228.366 20.32V26.92C228.366 35.56 225.486 41.24 219.726 43.96C222.846 45.24 225.086 47.4 226.446 50.44C227.806 53.4 228.486 57.2 228.486 61.84V74.8C228.486 77.2 228.566 79.16 228.726 80.68C228.886 82.12 229.286 83.56 229.926 85H216.486ZM202.086 38.8H207.246C209.886 38.8 211.846 38.12 213.126 36.76C214.486 35.4 215.166 33.12 215.166 29.92V21.64C215.166 18.6 214.606 16.4 213.486 15.04C212.446 13.68 210.766 13 208.446 13H202.086V38.8ZM267.56 85H255.68V0.999994H272.24L285.8 51.28V0.999994H297.56V85H284L267.56 24.16V85ZM338.331 36.4V48.4H320.211V73H343.011V85H307.011V0.999994H343.011V13H320.211V36.4H338.331ZM375.671 85H357.551L348.191 0.999994H361.031L368.111 67.24L374.471 0.999994H387.191L393.791 67.72L400.631 0.999994H412.151L402.791 85H385.271L380.471 40.24L375.671 85Z" fill="#171719"/>
<path d="M14 0.999994H15V-5.72205e-06H14V0.999994ZM14 85V86H15V85H14ZM0.8 85H-0.2V86H0.8V85ZM0.8 0.999994V-5.72205e-06H-0.2V0.999994H0.8ZM13 0.999994V85H15V0.999994H13ZM14 84H0.8V86H14V84ZM1.8 85V0.999994H-0.2V85H1.8ZM0.8 1.99999H14V-5.72205e-06H0.8V1.99999ZM35.4116 85V86H36.4116V85H35.4116ZM23.5316 85H22.5316V86H23.5316V85ZM23.5316 0.999994V-5.72205e-06H22.5316V0.999994H23.5316ZM40.0916 0.999994L41.0571 0.739607L40.8576 -5.72205e-06H40.0916V0.999994ZM53.6516 51.28L52.6861 51.5404L54.6516 51.28H53.6516ZM53.6516 0.999994V-5.72205e-06H52.6516V0.999994H53.6516ZM65.4116 0.999994H66.4116V-5.72205e-06H65.4116V0.999994ZM65.4116 85V86H66.4116V85H65.4116ZM51.8516 85L50.8862 85.2609L51.0859 86H51.8516V85ZM35.4116 24.16L36.3769 23.8991L34.4116 24.16H35.4116ZM35.4116 84H23.5316V86H35.4116V84ZM24.5316 85V0.999994H22.5316V85H24.5316ZM23.5316 1.99999H40.0916V-5.72205e-06H23.5316V1.99999ZM39.1261 1.26038L52.6861 51.5404L54.6171 51.0196L41.0571 0.739607L39.1261 1.26038ZM54.6516 51.28V0.999994H52.6516V51.28H54.6516ZM53.6516 1.99999H65.4116V-5.72205e-06H53.6516V1.99999ZM64.4116 0.999994V85H66.4116V0.999994H64.4116ZM65.4116 84H51.8516V86H65.4116V84ZM52.8169 84.7391L36.3769 23.8991L34.4462 24.4209L50.8862 85.2609L52.8169 84.7391ZM34.4116 24.16V85H36.4116V24.16H34.4116ZM97.5753 5.55999L96.8448 4.87711V4.87711L97.5753 5.55999ZM127.335 5.55999L128.066 4.87711V4.87711L127.335 5.55999ZM127.335 80.44L128.066 81.1229L127.335 80.44ZM97.5753 80.44L96.8448 81.1229L97.5753 80.44ZM93.4153 21.16C93.4153 14.607 95.0902 9.68283 98.3058 6.24288L96.8448 4.87711C93.1804 8.79716 91.4153 14.273 91.4153 21.16H93.4153ZM98.3058 6.24288C101.506 2.81921 106.168 1.04 112.455 1.04V-0.960001C105.782 -0.960001 100.524 0.940783 96.8448 4.87711L98.3058 6.24288ZM112.455 1.04C118.742 1.04 123.404 2.81921 126.605 6.24288L128.066 4.87711C124.386 0.940783 119.128 -0.960001 112.455 -0.960001V1.04ZM126.605 6.24288C129.82 9.68283 131.495 14.607 131.495 21.16H133.495C133.495 14.273 131.73 8.79716 128.066 4.87711L126.605 6.24288ZM131.495 21.16V64.84H133.495V21.16H131.495ZM131.495 64.84C131.495 71.393 129.82 76.3172 126.605 79.7571L128.066 81.1229C131.73 77.2028 133.495 71.727 133.495 64.84H131.495ZM126.605 79.7571C123.404 83.1808 118.742 84.96 112.455 84.96V86.96C119.128 86.96 124.386 85.0592 128.066 81.1229L126.605 79.7571ZM112.455 84.96C106.168 84.96 101.506 83.1808 98.3058 79.7571L96.8448 81.1229C100.524 85.0592 105.782 86.96 112.455 86.96V84.96ZM98.3058 79.7571C95.0902 76.3172 93.4153 71.393 93.4153 64.84H91.4153C91.4153 71.727 93.1804 77.2028 96.8448 81.1229L98.3058 79.7571ZM93.4153 64.84V21.16H91.4153V64.84H93.4153ZM104.615 65.68C104.615 68.5526 105.205 70.893 106.554 72.5269C107.934 74.1973 109.965 74.96 112.455 74.96V72.96C110.385 72.96 108.996 72.3427 108.096 71.2531C107.166 70.127 106.615 68.3274 106.615 65.68H104.615ZM112.455 74.96C114.945 74.96 116.976 74.1973 118.356 72.5269C119.706 70.893 120.295 68.5526 120.295 65.68H118.295C118.295 68.3274 117.745 70.127 116.814 71.2531C115.914 72.3427 114.525 72.96 112.455 72.96V74.96ZM120.295 65.68V20.32H118.295V65.68H120.295ZM120.295 20.32C120.295 17.4474 119.706 15.107 118.356 13.4731C116.976 11.8027 114.945 11.04 112.455 11.04V13.04C114.525 13.04 115.914 13.6573 116.814 14.7469C117.745 15.873 118.295 17.6726 118.295 20.32H120.295ZM112.455 11.04C109.965 11.04 107.934 11.8027 106.554 13.4731C105.205 15.107 104.615 17.4474 104.615 20.32H106.615C106.615 17.6726 107.166 15.873 108.096 14.7469C108.996 13.6573 110.385 13.04 112.455 13.04V11.04ZM104.615 20.32V65.68H106.615V20.32H104.615ZM167.353 0.999994V-5.72205e-06H166.353V0.999994H167.353ZM179.833 0.999994H180.833V-5.72205e-06H179.833V0.999994ZM174.793 80.68L175.525 81.3624L175.532 81.3543L174.793 80.68ZM145.513 80.68L144.775 81.3543L144.782 81.3623L145.513 80.68ZM140.473 0.999994V-5.72205e-06H139.473V0.999994H140.473ZM153.673 0.999994H154.673V-5.72205e-06H153.673V0.999994ZM152.673 65.8C152.673 68.6353 153.264 70.9481 154.617 72.5624C155.999 74.2105 158.028 74.96 160.513 74.96V72.96C158.438 72.96 157.048 72.3495 156.15 71.2776C155.223 70.1719 154.673 68.4047 154.673 65.8H152.673ZM160.513 74.96C162.998 74.96 165.028 74.2105 166.41 72.5624C167.763 70.9481 168.353 68.6353 168.353 65.8H166.353C166.353 68.4047 165.804 70.1719 164.877 71.2776C163.979 72.3495 162.588 72.96 160.513 72.96V74.96ZM168.353 65.8V0.999994H166.353V65.8H168.353ZM167.353 1.99999H179.833V-5.72205e-06H167.353V1.99999ZM178.833 0.999994V64.96H180.833V0.999994H178.833ZM178.833 64.96C178.833 71.6024 177.194 76.5682 174.055 80.0057L175.532 81.3543C179.113 77.4318 180.833 71.9176 180.833 64.96H178.833ZM174.062 79.9977C170.944 83.3389 166.364 85.08 160.153 85.08V87.08C166.743 87.08 171.923 85.2211 175.524 81.3623L174.062 79.9977ZM160.153 85.08C153.943 85.08 149.363 83.3389 146.244 79.9977L144.782 81.3623C148.384 85.2211 153.564 87.08 160.153 87.08V85.08ZM146.252 80.0057C143.113 76.5682 141.473 71.6024 141.473 64.96H139.473C139.473 71.9176 141.194 77.4318 144.775 81.3543L146.252 80.0057ZM141.473 64.96V0.999994H139.473V64.96H141.473ZM140.473 1.99999H153.673V-5.72205e-06H140.473V1.99999ZM152.673 0.999994V65.8H154.673V0.999994H152.673ZM216.486 85L215.543 85.3328L215.778 86H216.486V85ZM215.526 81.16L216.517 81.0278V81.0278L215.526 81.16ZM213.246 53.32L212.469 53.9492L212.476 53.9585L212.484 53.9677L213.246 53.32ZM202.086 50.8V49.8H201.086V50.8H202.086ZM202.086 85V86H203.086V85H202.086ZM188.886 85H187.886V86H188.886V85ZM188.886 0.999994V-5.72205e-06H187.886V0.999994H188.886ZM223.686 5.8L222.97 6.49815L222.979 6.5071L223.686 5.8ZM219.726 43.96L219.299 43.0558L217.248 44.0243L219.346 44.8852L219.726 43.96ZM226.446 50.44L225.533 50.8484L225.537 50.8575L226.446 50.44ZM228.726 80.68L227.731 80.7847L227.732 80.7904L228.726 80.68ZM229.926 85V86H231.465L230.84 84.5939L229.926 85ZM202.086 38.8H201.086V39.8H202.086V38.8ZM213.126 36.76L212.419 36.0529L212.408 36.0636L212.398 36.0746L213.126 36.76ZM213.486 15.04L212.692 15.6474L212.703 15.6618L212.714 15.6757L213.486 15.04ZM202.086 13V12H201.086V13H202.086ZM217.429 84.6672C216.968 83.3603 216.667 82.148 216.517 81.0278L214.535 81.2922C214.705 82.572 215.044 83.9197 215.543 85.3328L217.429 84.6672ZM216.517 81.0278C216.367 79.9019 216.286 77.8035 216.286 74.68H214.286C214.286 77.7965 214.365 80.0181 214.535 81.2922L216.517 81.0278ZM216.286 74.68V61.48H214.286V74.68H216.286ZM216.286 61.48C216.286 57.577 215.606 54.5521 214.008 52.6723L212.484 53.9677C213.606 55.2879 214.286 57.703 214.286 61.48H216.286ZM214.023 52.6908C212.405 50.6918 209.859 49.8 206.646 49.8V51.8C209.513 51.8 211.367 52.5882 212.469 53.9492L214.023 52.6908ZM206.646 49.8H202.086V51.8H206.646V49.8ZM201.086 50.8V85H203.086V50.8H201.086ZM202.086 84H188.886V86H202.086V84ZM189.886 85V0.999994H187.886V85H189.886ZM188.886 1.99999H208.806V-5.72205e-06H188.886V1.99999ZM208.806 1.99999C215.475 1.99999 220.117 3.57185 222.97 6.4981L224.402 5.1019C221.015 1.62814 215.737 -5.72205e-06 208.806 -5.72205e-06V1.99999ZM222.979 6.5071C225.837 9.36516 227.366 13.8972 227.366 20.32H229.366C229.366 13.6228 227.775 8.47483 224.393 5.09289L222.979 6.5071ZM227.366 20.32V26.92H229.366V20.32H227.366ZM227.366 26.92C227.366 35.3351 224.583 40.5604 219.299 43.0558L220.153 44.8642C226.389 41.9196 229.366 35.7849 229.366 26.92H227.366ZM219.346 44.8852C222.232 46.0691 224.279 48.046 225.533 50.8484L227.359 50.0316C225.892 46.754 223.46 44.4109 220.105 43.0348L219.346 44.8852ZM225.537 50.8575C226.817 53.6432 227.486 57.2873 227.486 61.84H229.486C229.486 57.1127 228.795 53.1568 227.355 50.0225L225.537 50.8575ZM227.486 61.84V74.8H229.486V61.84H227.486ZM227.486 74.8C227.486 77.2177 227.566 79.2162 227.731 80.7847L229.72 80.5753C229.566 79.1038 229.486 77.1823 229.486 74.8H227.486ZM227.732 80.7904C227.904 82.3411 228.334 83.8805 229.012 85.4061L230.84 84.5939C230.238 83.2395 229.868 81.8989 229.72 80.5696L227.732 80.7904ZM229.926 84H216.486V86H229.926V84ZM202.086 39.8H207.246V37.8H202.086V39.8ZM207.246 39.8C210.045 39.8 212.318 39.0776 213.854 37.4454L212.398 36.0746C211.374 37.1624 209.727 37.8 207.246 37.8V39.8ZM213.833 37.4671C215.472 35.8278 216.166 33.2186 216.166 29.92H214.166C214.166 33.0214 213.5 34.9722 212.419 36.0529L213.833 37.4671ZM216.166 29.92V21.64H214.166V29.92H216.166ZM216.166 21.64C216.166 18.5206 215.6 16.0335 214.258 14.4043L212.714 15.6757C213.612 16.7665 214.166 18.6794 214.166 21.64H216.166ZM214.28 14.4326C212.989 12.744 210.959 12 208.446 12V14C210.573 14 211.903 14.616 212.692 15.6474L214.28 14.4326ZM208.446 12H202.086V14H208.446V12ZM201.086 13V38.8H203.086V13H201.086ZM267.56 85V86H268.56V85H267.56ZM255.68 85H254.68V86H255.68V85ZM255.68 0.999994V-5.72205e-06H254.68V0.999994H255.68ZM272.24 0.999994L273.206 0.739607L273.006 -5.72205e-06H272.24V0.999994ZM285.8 51.28L284.835 51.5404L286.8 51.28H285.8ZM285.8 0.999994V-5.72205e-06H284.8V0.999994H285.8ZM297.56 0.999994H298.56V-5.72205e-06H297.56V0.999994ZM297.56 85V86H298.56V85H297.56ZM284 85L283.035 85.2609L283.234 86H284V85ZM267.56 24.16L268.525 23.8991L266.56 24.16H267.56ZM267.56 84H255.68V86H267.56V84ZM256.68 85V0.999994H254.68V85H256.68ZM255.68 1.99999H272.24V-5.72205e-06H255.68V1.99999ZM271.275 1.26038L284.835 51.5404L286.766 51.0196L273.206 0.739607L271.275 1.26038ZM286.8 51.28V0.999994H284.8V51.28H286.8ZM285.8 1.99999H297.56V-5.72205e-06H285.8V1.99999ZM296.56 0.999994V85H298.56V0.999994H296.56ZM297.56 84H284V86H297.56V84ZM284.965 84.7391L268.525 23.8991L266.595 24.4209L283.035 85.2609L284.965 84.7391ZM266.56 24.16V85H268.56V24.16H266.56ZM338.331 36.4H339.331V35.4H338.331V36.4ZM338.331 48.4V49.4H339.331V48.4H338.331ZM320.211 48.4V47.4H319.211V48.4H320.211ZM320.211 73H319.211V74H320.211V73ZM343.011 73H344.011V72H343.011V73ZM343.011 85V86H344.011V85H343.011ZM307.011 85H306.011V86H307.011V85ZM307.011 0.999994V-5.72205e-06H306.011V0.999994H307.011ZM343.011 0.999994H344.011V-5.72205e-06H343.011V0.999994ZM343.011 13V14H344.011V13H343.011ZM320.211 13V12H319.211V13H320.211ZM320.211 36.4H319.211V37.4H320.211V36.4ZM337.331 36.4V48.4H339.331V36.4H337.331ZM338.331 47.4H320.211V49.4H338.331V47.4ZM319.211 48.4V73H321.211V48.4H319.211ZM320.211 74H343.011V72H320.211V74ZM342.011 73V85H344.011V73H342.011ZM343.011 84H307.011V86H343.011V84ZM308.011 85V0.999994H306.011V85H308.011ZM307.011 1.99999H343.011V-5.72205e-06H307.011V1.99999ZM342.011 0.999994V13H344.011V0.999994H342.011ZM343.011 12H320.211V14H343.011V12ZM319.211 13V36.4H321.211V13H319.211ZM320.211 37.4H338.331V35.4H320.211V37.4ZM375.671 85V86H376.569L376.665 85.1066L375.671 85ZM357.551 85L356.557 85.1107L356.656 86H357.551V85ZM348.191 0.999994V-5.72205e-06H347.073L347.197 1.11074L348.191 0.999994ZM361.031 0.999994L362.025 0.893715L361.929 -5.72205e-06H361.031V0.999994ZM368.111 67.24L367.116 67.3463L369.106 67.3356L368.111 67.24ZM374.471 0.999994V-5.72205e-06H373.562L373.475 0.904419L374.471 0.999994ZM387.191 0.999994L388.186 0.901554L388.097 -5.72205e-06H387.191V0.999994ZM393.791 67.72L392.795 67.8184L394.785 67.822L393.791 67.72ZM400.631 0.999994V-5.72205e-06H399.728L399.636 0.89801L400.631 0.999994ZM412.151 0.999994L413.144 1.11074L413.268 -5.72205e-06H412.151V0.999994ZM402.791 85V86H403.685L403.784 85.1107L402.791 85ZM385.271 85L384.276 85.1066L384.372 86H385.271V85ZM380.471 40.24L381.465 40.1334H379.476L380.471 40.24ZM375.671 84H357.551V86H375.671V84ZM358.544 84.8893L349.184 0.889252L347.197 1.11074L356.557 85.1107L358.544 84.8893ZM348.191 1.99999H361.031V-5.72205e-06H348.191V1.99999ZM360.036 1.10627L367.116 67.3463L369.105 67.1337L362.025 0.893715L360.036 1.10627ZM369.106 67.3356L375.466 1.09557L373.475 0.904419L367.115 67.1444L369.106 67.3356ZM374.471 1.99999H387.191V-5.72205e-06H374.471V1.99999ZM386.195 1.09843L392.795 67.8184L394.786 67.6216L388.186 0.901554L386.195 1.09843ZM394.785 67.822L401.625 1.10198L399.636 0.89801L392.796 67.618L394.785 67.822ZM400.631 1.99999H412.151V-5.72205e-06H400.631V1.99999ZM411.157 0.889252L401.797 84.8893L403.784 85.1107L413.144 1.11074L411.157 0.889252ZM402.791 84H385.271V86H402.791V84ZM386.265 84.8934L381.465 40.1334L379.476 40.3466L384.276 85.1066L386.265 84.8934ZM379.476 40.1334L374.676 84.8934L376.665 85.1066L381.465 40.3466L379.476 40.1334ZM474.401 0.999994V-5.72205e-06H473.54L473.412 0.850779L474.401 0.999994ZM492.761 0.999994H493.761V-5.72205e-06H492.761V0.999994ZM492.761 85V86H493.761V85H492.761ZM480.281 85H479.281V86H480.281V85ZM480.281 24.76H481.281L479.292 24.6103L480.281 24.76ZM471.161 85V86H472.021L472.149 85.1497L471.161 85ZM458.681 85L457.694 85.1634L457.833 86H458.681V85ZM448.841 25.6L449.827 25.4366L447.841 25.6H448.841ZM448.841 85V86H449.841V85H448.841ZM437.321 85H436.321V86H437.321V85ZM437.321 0.999994V-5.72205e-06H436.321V0.999994H437.321ZM455.681 0.999994L456.668 0.839138L456.531 -5.72205e-06H455.681V0.999994ZM465.401 60.64L464.414 60.8009L466.389 60.7892L465.401 60.64ZM474.401 1.99999H492.761V-5.72205e-06H474.401V1.99999ZM491.761 0.999994V85H493.761V0.999994H491.761ZM492.761 84H480.281V86H492.761V84ZM481.281 85V24.76H479.281V85H481.281ZM479.292 24.6103L470.172 84.8503L472.149 85.1497L481.269 24.9097L479.292 24.6103ZM471.161 84H458.681V86H471.161V84ZM459.667 84.8366L449.827 25.4366L447.854 25.7634L457.694 85.1634L459.667 84.8366ZM447.841 25.6V85H449.841V25.6H447.841ZM448.841 84H437.321V86H448.841V84ZM438.321 85V0.999994H436.321V85H438.321ZM437.321 1.99999H455.681V-5.72205e-06H437.321V1.99999ZM454.694 1.16085L464.414 60.8009L466.388 60.4791L456.668 0.839138L454.694 1.16085ZM466.389 60.7892L475.389 1.14921L473.412 0.850779L464.412 60.4908L466.389 60.7892ZM533.682 36.4H534.682V35.4H533.682V36.4ZM533.682 48.4V49.4H534.682V48.4H533.682ZM515.562 48.4V47.4H514.562V48.4H515.562ZM515.562 73H514.562V74H515.562V73ZM538.362 73H539.362V72H538.362V73ZM538.362 85V86H539.362V85H538.362ZM502.362 85H501.362V86H502.362V85ZM502.362 0.999994V-5.72205e-06H501.362V0.999994H502.362ZM538.362 0.999994H539.362V-5.72205e-06H538.362V0.999994ZM538.362 13V14H539.362V13H538.362ZM515.562 13V12H514.562V13H515.562ZM515.562 36.4H514.562V37.4H515.562V36.4ZM532.682 36.4V48.4H534.682V36.4H532.682ZM533.682 47.4H515.562V49.4H533.682V47.4ZM514.562 48.4V73H516.562V48.4H514.562ZM515.562 74H538.362V72H515.562V74ZM537.362 73V85H539.362V73H537.362ZM538.362 84H502.362V86H538.362V84ZM503.362 85V0.999994H501.362V85H503.362ZM502.362 1.99999H538.362V-5.72205e-06H502.362V1.99999ZM537.362 0.999994V13H539.362V0.999994H537.362ZM538.362 12H515.562V14H538.362V12ZM514.562 13V36.4H516.562V13H514.562ZM515.562 37.4H533.682V35.4H515.562V37.4ZM583.502 0.999994H584.502V-5.72205e-06H583.502V0.999994ZM583.502 13V14H584.502V13H583.502ZM569.702 13V12H568.702V13H569.702ZM569.702 85V86H570.702V85H569.702ZM556.502 85H555.502V86H556.502V85ZM556.502 13H557.502V12H556.502V13ZM542.702 13H541.702V14H542.702V13ZM542.702 0.999994V-5.72205e-06H541.702V0.999994H542.702ZM582.502 0.999994V13H584.502V0.999994H582.502ZM583.502 12H569.702V14H583.502V12ZM568.702 13V85H570.702V13H568.702ZM569.702 84H556.502V86H569.702V84ZM557.502 85V13H555.502V85H557.502ZM556.502 12H542.702V14H556.502V12ZM543.702 13V0.999994H541.702V13H543.702ZM542.702 1.99999H583.502V-5.72205e-06H542.702V1.99999ZM614.145 85L613.156 85.148L613.284 86H614.145V85ZM611.865 69.76L612.854 69.612L612.727 68.76H611.865V69.76ZM595.665 69.76V68.76H594.804L594.676 69.612L595.665 69.76ZM593.385 85V86H594.247L594.374 85.148L593.385 85ZM581.265 85L580.278 84.842L580.093 86H581.265V85ZM594.705 0.999994V-5.72205e-06H593.853L593.718 0.842003L594.705 0.999994ZM614.025 0.999994L615.013 0.842003L614.878 -5.72205e-06H614.025V0.999994ZM627.465 85V86H628.638L628.453 84.842L627.465 85ZM610.065 58.36V59.36H611.226L611.054 58.2119L610.065 58.36ZM603.705 15.88L604.694 15.7319H602.716L603.705 15.88ZM597.345 58.36L596.356 58.2119L596.184 59.36H597.345V58.36ZM615.134 84.852L612.854 69.612L610.876 69.908L613.156 85.148L615.134 84.852ZM611.865 68.76H595.665V70.76H611.865V68.76ZM594.676 69.612L592.396 84.852L594.374 85.148L596.654 69.908L594.676 69.612ZM593.385 84H581.265V86H593.385V84ZM582.253 85.158L595.693 1.15799L593.718 0.842003L580.278 84.842L582.253 85.158ZM594.705 1.99999H614.025V-5.72205e-06H594.705V1.99999ZM613.038 1.15799L626.478 85.158L628.453 84.842L615.013 0.842003L613.038 1.15799ZM627.465 84H614.145V86H627.465V84ZM611.054 58.2119L604.694 15.7319L602.716 16.0281L609.076 58.5081L611.054 58.2119ZM602.716 15.7319L596.356 58.2119L598.334 58.5081L604.694 16.0281L602.716 15.7319ZM597.345 59.36H610.065V57.36H597.345V59.36ZM660.566 0.999994V-5.72205e-06H659.702L659.576 0.85445L660.566 0.999994ZM672.686 0.999994L673.674 1.15248L673.852 -5.72205e-06H672.686V0.999994ZM659.726 85V86H660.583L660.714 85.1525L659.726 85ZM640.046 85L639.057 85.1525L639.188 86H640.046V85ZM627.086 0.999994V-5.72205e-06H625.919L626.097 1.15248L627.086 0.999994ZM640.406 0.999994L641.395 0.85445L641.269 -5.72205e-06H640.406V0.999994ZM650.486 69.52L649.496 69.6655H651.475L650.486 69.52ZM660.566 1.99999H672.686V-5.72205e-06H660.566V1.99999ZM671.697 0.847513L658.737 84.8475L660.714 85.1525L673.674 1.15248L671.697 0.847513ZM659.726 84H640.046V86H659.726V84ZM641.034 84.8475L628.074 0.847513L626.097 1.15248L639.057 85.1525L641.034 84.8475ZM627.086 1.99999H640.406V-5.72205e-06H627.086V1.99999ZM639.416 1.14554L649.496 69.6655L651.475 69.3745L641.395 0.85445L639.416 1.14554ZM651.475 69.6655L661.555 1.14554L659.576 0.85445L649.496 69.3745L651.475 69.6655ZM710.167 36.4H711.167V35.4H710.167V36.4ZM710.167 48.4V49.4H711.167V48.4H710.167ZM692.047 48.4V47.4H691.047V48.4H692.047ZM692.047 73H691.047V74H692.047V73ZM714.847 73H715.847V72H714.847V73ZM714.847 85V86H715.847V85H714.847ZM678.847 85H677.847V86H678.847V85ZM678.847 0.999994V-5.72205e-06H677.847V0.999994H678.847ZM714.847 0.999994H715.847V-5.72205e-06H714.847V0.999994ZM714.847 13V14H715.847V13H714.847ZM692.047 13V12H691.047V13H692.047ZM692.047 36.4H691.047V37.4H692.047V36.4ZM709.167 36.4V48.4H711.167V36.4H709.167ZM710.167 47.4H692.047V49.4H710.167V47.4ZM691.047 48.4V73H693.047V48.4H691.047ZM692.047 74H714.847V72H692.047V74ZM713.847 73V85H715.847V73H713.847ZM714.847 84H678.847V86H714.847V84ZM679.847 85V0.999994H677.847V85H679.847ZM678.847 1.99999H714.847V-5.72205e-06H678.847V1.99999ZM713.847 0.999994V13H715.847V0.999994H713.847ZM714.847 12H692.047V14H714.847V12ZM691.047 13V36.4H693.047V13H691.047ZM692.047 37.4H710.167V35.4H692.047V37.4ZM750.627 85L749.684 85.3328L749.919 86H750.627V85ZM749.667 81.16L750.658 81.0278V81.0278L749.667 81.16ZM747.387 53.32L746.609 53.9492L746.617 53.9585L746.625 53.9677L747.387 53.32ZM736.227 50.8V49.8H735.227V50.8H736.227ZM736.227 85V86H737.227V85H736.227ZM723.027 85H722.027V86H723.027V85ZM723.027 0.999994V-5.72205e-06H722.027V0.999994H723.027ZM757.827 5.8L757.111 6.49815L757.119 6.5071L757.827 5.8ZM753.867 43.96L753.44 43.0558L751.389 44.0243L753.487 44.8852L753.867 43.96ZM760.587 50.44L759.674 50.8484L759.678 50.8575L760.587 50.44ZM762.867 80.68L761.872 80.7847L761.873 80.7904L762.867 80.68ZM764.067 85V86H765.605L764.98 84.5939L764.067 85ZM736.227 38.8H735.227V39.8H736.227V38.8ZM747.267 36.76L746.559 36.0529L746.549 36.0636L746.538 36.0746L747.267 36.76ZM747.627 15.04L746.832 15.6474L746.843 15.6618L746.855 15.6757L747.627 15.04ZM736.227 13V12H735.227V13H736.227ZM751.57 84.6672C751.108 83.3603 750.807 82.148 750.658 81.0278L748.675 81.2922C748.846 82.572 749.185 83.9197 749.684 85.3328L751.57 84.6672ZM750.658 81.0278C750.508 79.9019 750.427 77.8035 750.427 74.68H748.427C748.427 77.7965 748.505 80.0181 748.675 81.2922L750.658 81.0278ZM750.427 74.68V61.48H748.427V74.68H750.427ZM750.427 61.48C750.427 57.577 749.746 54.5521 748.148 52.6723L746.625 53.9677C747.747 55.2879 748.427 57.703 748.427 61.48H750.427ZM748.164 52.6908C746.546 50.6918 744 49.8 740.787 49.8V51.8C743.653 51.8 745.508 52.5882 746.609 53.9492L748.164 52.6908ZM740.787 49.8H736.227V51.8H740.787V49.8ZM735.227 50.8V85H737.227V50.8H735.227ZM736.227 84H723.027V86H736.227V84ZM724.027 85V0.999994H722.027V85H724.027ZM723.027 1.99999H742.947V-5.72205e-06H723.027V1.99999ZM742.947 1.99999C749.616 1.99999 754.257 3.57185 757.111 6.4981L758.543 5.1019C755.156 1.62814 749.878 -5.72205e-06 742.947 -5.72205e-06V1.99999ZM757.119 6.5071C759.978 9.36516 761.507 13.8972 761.507 20.32H763.507C763.507 13.6228 761.916 8.47483 758.534 5.09289L757.119 6.5071ZM761.507 20.32V26.92H763.507V20.32H761.507ZM761.507 26.92C761.507 35.3351 758.724 40.5604 753.44 43.0558L754.294 44.8642C760.529 41.9196 763.507 35.7849 763.507 26.92H761.507ZM753.487 44.8852C756.373 46.0691 758.42 48.046 759.674 50.8484L761.499 50.0316C760.033 46.754 757.6 44.4109 754.246 43.0348L753.487 44.8852ZM759.678 50.8575C760.958 53.6432 761.627 57.2873 761.627 61.84H763.627C763.627 57.1127 762.935 53.1568 761.495 50.0225L759.678 50.8575ZM761.627 61.84V74.8H763.627V61.84H761.627ZM761.627 74.8C761.627 77.2177 761.707 79.2162 761.872 80.7847L763.861 80.5753C763.706 79.1038 763.627 77.1823 763.627 74.8H761.627ZM761.873 80.7904C762.045 82.3411 762.475 83.8805 763.153 85.4061L764.98 84.5939C764.378 83.2395 764.008 81.8989 763.86 80.5696L761.873 80.7904ZM764.067 84H750.627V86H764.067V84ZM736.227 39.8H741.387V37.8H736.227V39.8ZM741.387 39.8C744.186 39.8 746.459 39.0776 747.995 37.4454L746.538 36.0746C745.515 37.1624 743.867 37.8 741.387 37.8V39.8ZM747.974 37.4671C749.613 35.8278 750.307 33.2186 750.307 29.92H748.307C748.307 33.0214 747.64 34.9722 746.559 36.0529L747.974 37.4671ZM750.307 29.92V21.64H748.307V29.92H750.307ZM750.307 21.64C750.307 18.5206 749.74 16.0335 748.398 14.4043L746.855 15.6757C747.753 16.7665 748.307 18.6794 748.307 21.64H750.307ZM748.421 14.4326C747.13 12.744 745.099 12 742.587 12V14C744.714 14 746.043 14.616 746.832 15.6474L748.421 14.4326ZM742.587 12H736.227V14H742.587V12ZM735.227 13V38.8H737.227V13H735.227ZM774.548 5.55999L775.287 6.23352L775.294 6.22536L774.548 5.55999ZM803.588 5.55999L802.841 6.2254L802.849 6.23348L803.588 5.55999ZM808.508 23.8V24.8H809.508V23.8H808.508ZM796.028 23.8H795.028V24.8H796.028V23.8ZM794.348 14.08L793.576 14.7157L793.585 14.7272L793.595 14.7385L794.348 14.08ZM784.508 14.08L785.26 14.7385L785.27 14.7272L785.28 14.7157L784.508 14.08ZM785.588 29.56L784.767 30.1318L784.773 30.14L784.779 30.1482L785.588 29.56ZM794.108 38.56L794.786 37.8252L794.78 37.8197L794.774 37.8143L794.108 38.56ZM801.668 46.24L800.909 46.8908L800.914 46.8976L800.92 46.9044L801.668 46.24ZM806.588 54.16L807.505 53.7604L806.588 54.16ZM803.588 80.56L804.319 81.2424L804.326 81.2343L803.588 80.56ZM774.308 80.56L773.569 81.2343L773.577 81.2423L774.308 80.56ZM769.268 59.68V58.68H768.268V59.68H769.268ZM781.748 59.68H782.748V58.68H781.748V59.68ZM792.548 56.44L791.727 57.0118L791.733 57.02L791.739 57.0282L792.548 56.44ZM784.148 47.44L783.47 48.1748L783.475 48.1803L783.482 48.1857L784.148 47.44ZM776.588 39.88L775.829 40.5308L775.834 40.5376L775.84 40.5444L776.588 39.88ZM770.628 21.16C770.628 14.5102 772.231 9.58735 775.287 6.23348L773.809 4.8865C770.304 8.73264 768.628 14.2098 768.628 21.16H770.628ZM775.294 6.22536C778.332 2.81749 782.863 1.04 789.068 1.04V-0.960001C782.473 -0.960001 777.324 0.942501 773.801 4.89462L775.294 6.22536ZM789.068 1.04C795.273 1.04 799.804 2.81749 802.841 6.22536L804.334 4.89462C800.812 0.942501 795.663 -0.960001 789.068 -0.960001V1.04ZM802.849 6.23348C805.904 9.58735 807.508 14.5102 807.508 21.16H809.508C809.508 14.2098 807.831 8.73264 804.327 4.8865L802.849 6.23348ZM807.508 21.16V23.8H809.508V21.16H807.508ZM808.508 22.8H796.028V24.8H808.508V22.8ZM797.028 23.8V20.32H795.028V23.8H797.028ZM797.028 20.32C797.028 17.3525 796.459 14.9737 795.1 13.4215L793.595 14.7385C794.477 15.7463 795.028 17.5275 795.028 20.32H797.028ZM795.12 13.4443C793.767 11.8019 791.812 11.04 789.428 11.04V13.04C791.363 13.04 792.688 13.6381 793.576 14.7157L795.12 13.4443ZM789.428 11.04C787.043 11.04 785.088 11.8019 783.736 13.4443L785.28 14.7157C786.167 13.6381 787.492 13.04 789.428 13.04V11.04ZM783.755 13.4215C782.397 14.9737 781.828 17.3525 781.828 20.32H783.828C783.828 17.5275 784.379 15.7463 785.26 14.7385L783.755 13.4215ZM781.828 20.32C781.828 24.0244 782.799 27.3083 784.767 30.1318L786.408 28.9882C784.696 26.5317 783.828 23.6556 783.828 20.32H781.828ZM784.779 30.1482C786.757 32.8677 789.654 35.921 793.441 39.3057L794.774 37.8143C791.042 34.479 788.259 31.5323 786.397 28.9718L784.779 30.1482ZM793.43 39.2948C796.532 42.1588 799.022 44.6901 800.909 46.8908L802.427 45.5892C800.473 43.3099 797.923 40.7212 794.786 37.8252L793.43 39.2948ZM800.92 46.9044C802.759 48.973 804.346 51.5195 805.671 54.5596L807.505 53.7604C806.11 50.5605 804.416 47.827 802.415 45.5756L800.92 46.9044ZM805.671 54.5596C806.967 57.5334 807.628 60.9537 807.628 64.84H809.628C809.628 60.7263 808.928 57.0266 807.505 53.7604L805.671 54.5596ZM807.628 64.84C807.628 71.4824 805.988 76.4482 802.849 79.8857L804.326 81.2343C807.908 77.3118 809.628 71.7976 809.628 64.84H807.628ZM802.857 79.8777C799.738 83.2189 795.158 84.96 788.948 84.96V86.96C795.537 86.96 800.717 85.1011 804.319 81.2423L802.857 79.8777ZM788.948 84.96C782.737 84.96 778.157 83.2189 775.039 79.8777L773.577 81.2423C777.178 85.1011 782.358 86.96 788.948 86.96V84.96ZM775.046 79.8857C771.908 76.4482 770.268 71.4824 770.268 64.84H768.268C768.268 71.7976 769.988 77.3118 773.569 81.2343L775.046 79.8857ZM770.268 64.84V59.68H768.268V64.84H770.268ZM769.268 60.68H781.748V58.68H769.268V60.68ZM780.748 59.68V65.68H782.748V59.68H780.748ZM780.748 65.68C780.748 68.5153 781.338 70.8281 782.691 72.4424C784.073 74.0905 786.103 74.84 788.588 74.84V72.84C786.513 72.84 785.123 72.2295 784.224 71.1576C783.297 70.0519 782.748 68.2847 782.748 65.68H780.748ZM788.588 74.84C791.073 74.84 793.103 74.0905 794.484 72.4424C795.837 70.8281 796.428 68.5153 796.428 65.68H794.428C794.428 68.2847 793.878 70.0519 792.951 71.1576C792.053 72.2295 790.663 72.84 788.588 72.84V74.84ZM796.428 65.68C796.428 61.9662 795.411 58.6764 793.357 55.8518L791.739 57.0282C793.525 59.4836 794.428 62.3538 794.428 65.68H796.428ZM793.368 55.8682C791.466 53.1392 788.603 50.0805 784.814 46.6943L783.482 48.1857C787.212 51.5195 789.949 54.4608 791.727 57.0118L793.368 55.8682ZM784.826 46.7052C781.72 43.8382 779.226 41.3426 777.335 39.2156L775.84 40.5444C777.79 42.7374 780.335 45.2818 783.47 48.1748L784.826 46.7052ZM777.347 39.2292C775.501 37.0752 773.911 34.483 772.585 31.4404L770.751 32.2396C772.145 35.437 773.835 38.2048 775.829 40.5308L777.347 39.2292ZM772.585 31.4404C771.288 28.4666 770.628 25.0463 770.628 21.16H768.628C768.628 25.2737 769.327 28.9734 770.751 32.2396L772.585 31.4404ZM847.511 36.4H848.511V35.4H847.511V36.4ZM847.511 48.4V49.4H848.511V48.4H847.511ZM829.391 48.4V47.4H828.391V48.4H829.391ZM829.391 73H828.391V74H829.391V73ZM852.191 73H853.191V72H852.191V73ZM852.191 85V86H853.191V85H852.191ZM816.191 85H815.191V86H816.191V85ZM816.191 0.999994V-5.72205e-06H815.191V0.999994H816.191ZM852.191 0.999994H853.191V-5.72205e-06H852.191V0.999994ZM852.191 13V14H853.191V13H852.191ZM829.391 13V12H828.391V13H829.391ZM829.391 36.4H828.391V37.4H829.391V36.4ZM846.511 36.4V48.4H848.511V36.4H846.511ZM847.511 47.4H829.391V49.4H847.511V47.4ZM828.391 48.4V73H830.391V48.4H828.391ZM829.391 74H852.191V72H829.391V74ZM851.191 73V85H853.191V73H851.191ZM852.191 84H816.191V86H852.191V84ZM817.191 85V0.999994H815.191V85H817.191ZM816.191 1.99999H852.191V-5.72205e-06H816.191V1.99999ZM851.191 0.999994V13H853.191V0.999994H851.191ZM852.191 12H829.391V14H852.191V12ZM828.391 13V36.4H830.391V13H828.391ZM829.391 37.4H847.511V35.4H829.391V37.4Z" fill="white"/>
</svg>
